<?xml version="1.0" encoding="UTF-8" standalone="no"?>
<!-- Created with Inkscape (http://www.inkscape.org/) -->

<svg
   xmlns:dc="http://purl.org/dc/elements/1.1/"
   xmlns:cc="http://creativecommons.org/ns#"
   xmlns:rdf="http://www.w3.org/1999/02/22-rdf-syntax-ns#"
   xmlns:svg="http://www.w3.org/2000/svg"
   xmlns="http://www.w3.org/2000/svg"
   xmlns:sodipodi="http://sodipodi.sourceforge.net/DTD/sodipodi-0.dtd"
   xmlns:inkscape="http://www.inkscape.org/namespaces/inkscape"
   inkscape:version="0.91 r13725"
   version="1.1"
   id="svg2"
   viewBox="0 0 493.11636 354.0678"
   height="99.925804mm"
   width="139.1684mm"
   sodipodi:docname="Hphi.svg">
  <sodipodi:namedview
     inkscape:snap-intersection-paths="true"
     inkscape:snap-global="false"
     inkscape:snap-object-midpoints="true"
     inkscape:object-nodes="true"
     inkscape:object-paths="false"
     inkscape:snap-center="true"
     inkscape:window-maximized="1"
     inkscape:window-y="24"
     inkscape:window-x="4545"
     inkscape:window-height="1056"
     inkscape:window-width="1855"
     showgrid="false"
     inkscape:current-layer="layer1"
     inkscape:document-units="px"
     inkscape:cy="108.39618"
     inkscape:cx="174.86418"
     inkscape:zoom="1.2349952"
     inkscape:pageshadow="2"
     inkscape:pageopacity="0.0"
     borderopacity="1.0"
     bordercolor="#666666"
     pagecolor="#ffffff"
     id="base"
     fit-margin-top="1"
     fit-margin-right="1"
     fit-margin-left="1"
     fit-margin-bottom="1" />
  <defs
     id="defs4">
    <marker
       inkscape:isstock="true"
       style="overflow:visible"
       id="marker8093"
       refX="0"
       refY="0"
       orient="auto"
       inkscape:stockid="Arrow1Lstart">
      <path
         transform="matrix(0.8,0,0,0.8,10,0)"
         style="fill:#000000;fill-opacity:1;fill-rule:evenodd;stroke:#000000;stroke-width:1pt;stroke-opacity:1"
         d="M 0,0 5,-5 -12.5,0 5,5 0,0 Z"
         id="path8095"
         inkscape:connector-curvature="0" />
    </marker>
    <marker
       inkscape:stockid="Arrow1Lstart"
       orient="auto"
       refY="0"
       refX="0"
       id="marker8053"
       style="overflow:visible"
       inkscape:isstock="true"
       inkscape:collect="always">
      <path
         id="path8055"
         d="M 0,0 5,-5 -12.5,0 5,5 0,0 Z"
         style="fill:#000000;fill-opacity:1;fill-rule:evenodd;stroke:#000000;stroke-width:1pt;stroke-opacity:1"
         transform="matrix(0.8,0,0,0.8,10,0)"
         inkscape:connector-curvature="0" />
    </marker>
    <marker
       inkscape:isstock="true"
       style="overflow:visible"
       id="marker8015"
       refX="0"
       refY="0"
       orient="auto"
       inkscape:stockid="Arrow1Lstart"
       inkscape:collect="always">
      <path
         transform="matrix(0.8,0,0,0.8,10,0)"
         style="fill:#000000;fill-opacity:1;fill-rule:evenodd;stroke:#000000;stroke-width:1pt;stroke-opacity:1"
         d="M 0,0 5,-5 -12.5,0 5,5 0,0 Z"
         id="path8017"
         inkscape:connector-curvature="0" />
    </marker>
    <marker
       inkscape:stockid="Arrow1Lstart"
       orient="auto"
       refY="0"
       refX="0"
       id="marker7967"
       style="overflow:visible"
       inkscape:isstock="true"
       inkscape:collect="always">
      <path
         id="path7969"
         d="M 0,0 5,-5 -12.5,0 5,5 0,0 Z"
         style="fill:#000000;fill-opacity:1;fill-rule:evenodd;stroke:#000000;stroke-width:1pt;stroke-opacity:1"
         transform="matrix(0.8,0,0,0.8,10,0)"
         inkscape:connector-curvature="0" />
    </marker>
    <marker
       inkscape:stockid="Arrow1Lstart"
       orient="auto"
       refY="0"
       refX="0"
       id="marker7939"
       style="overflow:visible"
       inkscape:isstock="true">
      <path
         id="path7941"
         d="M 0,0 5,-5 -12.5,0 5,5 0,0 Z"
         style="fill:#000000;fill-opacity:1;fill-rule:evenodd;stroke:#000000;stroke-width:1pt;stroke-opacity:1"
         transform="matrix(0.8,0,0,0.8,10,0)"
         inkscape:connector-curvature="0" />
    </marker>
    <marker
       inkscape:isstock="true"
       style="overflow:visible"
       id="marker5801"
       refX="0"
       refY="0"
       orient="auto"
       inkscape:stockid="Arrow1Lend">
      <path
         transform="matrix(-0.8,0,0,-0.8,-10,0)"
         style="fill:#000000;fill-opacity:1;fill-rule:evenodd;stroke:#000000;stroke-width:1pt;stroke-opacity:1"
         d="M 0,0 5,-5 -12.5,0 5,5 0,0 Z"
         id="path5803"
         inkscape:connector-curvature="0" />
    </marker>
    <marker
       inkscape:collect="always"
       inkscape:stockid="Arrow1Lend"
       orient="auto"
       refY="0"
       refX="0"
       id="marker5498"
       style="overflow:visible"
       inkscape:isstock="true">
      <path
         id="path5500"
         d="M 0,0 5,-5 -12.5,0 5,5 0,0 Z"
         style="fill:#000000;fill-opacity:1;fill-rule:evenodd;stroke:#000000;stroke-width:1pt;stroke-opacity:1"
         transform="matrix(-0.8,0,0,-0.8,-10,0)"
         inkscape:connector-curvature="0" />
    </marker>
    <marker
       inkscape:collect="always"
       inkscape:isstock="true"
       style="overflow:visible"
       id="marker5470"
       refX="0"
       refY="0"
       orient="auto"
       inkscape:stockid="Arrow1Lend">
      <path
         transform="matrix(-0.8,0,0,-0.8,-10,0)"
         style="fill:#000000;fill-opacity:1;fill-rule:evenodd;stroke:#000000;stroke-width:1pt;stroke-opacity:1"
         d="M 0,0 5,-5 -12.5,0 5,5 0,0 Z"
         id="path5472"
         inkscape:connector-curvature="0" />
    </marker>
    <marker
       inkscape:isstock="true"
       style="overflow:visible"
       id="Arrow1Lend"
       refX="0"
       refY="0"
       orient="auto"
       inkscape:stockid="Arrow1Lend">
      <path
         transform="matrix(-0.8,0,0,-0.8,-10,0)"
         style="fill:#000000;fill-opacity:1;fill-rule:evenodd;stroke:#000000;stroke-width:1pt;stroke-opacity:1"
         d="M 0,0 5,-5 -12.5,0 5,5 0,0 Z"
         id="path5189"
         inkscape:connector-curvature="0" />
    </marker>
    <marker
       inkscape:isstock="true"
       style="overflow:visible"
       id="Arrow1Lstart"
       refX="0"
       refY="0"
       orient="auto"
       inkscape:stockid="Arrow1Lstart">
      <path
         transform="matrix(0.8,0,0,0.8,10,0)"
         style="fill:#000000;fill-opacity:1;fill-rule:evenodd;stroke:#000000;stroke-width:1pt;stroke-opacity:1"
         d="M 0,0 5,-5 -12.5,0 5,5 0,0 Z"
         id="path5186"
         inkscape:connector-curvature="0" />
    </marker>
  </defs>
  <metadata
     id="metadata7">
    <rdf:RDF>
      <cc:Work
         rdf:about="">
        <dc:format>image/svg+xml</dc:format>
        <dc:type
           rdf:resource="http://purl.org/dc/dcmitype/StillImage" />
        <dc:title></dc:title>
      </cc:Work>
    </rdf:RDF>
  </metadata>
  <g
     id="layer1"
     inkscape:groupmode="layer"
     inkscape:label="Layer 1"
     transform="translate(-190.41496,-202.1162)">
    <circle
       style="fill:#cccccc;fill-rule:evenodd;stroke:#000000;stroke-width:1px;stroke-linecap:butt;stroke-linejoin:miter;stroke-opacity:1"
       id="path4146"
       cx="275.71429"
       cy="492.36218"
       r="41.42857" />
    <path
       style="fill:none;fill-rule:evenodd;stroke:#000000;stroke-width:1.5;stroke-linecap:butt;stroke-linejoin:miter;stroke-miterlimit:4;stroke-dasharray:none;stroke-opacity:1"
       d="M 275.71429,492.36218 447.38384,375.31138"
       id="path4948"
       inkscape:connector-curvature="0"
       sodipodi:nodetypes="cc" />
    <path
       style="fill:none;stroke:#666666;stroke-width:2;stroke-miterlimit:4;stroke-dasharray:none"
       id="path4956"
       sodipodi:type="arc"
       sodipodi:cx="372.24121"
       sodipodi:cy="544.76056"
       sodipodi:rx="185.36299"
       sodipodi:ry="185.36299"
       sodipodi:start="3.4371379"
       sodipodi:end="0.033523822"
       d="M 194.91491,490.77146 A 185.36299,185.36299 0 0 1 402.6024,361.90095 185.36299,185.36299 0 0 1 557.50005,550.97347"
       sodipodi:open="true" />
    <path
       style="fill:none;fill-rule:evenodd;stroke:#000000;stroke-width:1.5;stroke-linecap:butt;stroke-linejoin:miter;stroke-miterlimit:4;stroke-dasharray:none;stroke-opacity:1"
       d="M 372.24121,544.76056 447.38384,375.31138"
       id="path4958"
       inkscape:connector-curvature="0" />
    <path
       style="fill:none;fill-rule:evenodd;stroke:#000000;stroke-width:1;stroke-linecap:butt;stroke-linejoin:miter;stroke-miterlimit:4;stroke-dasharray:6, 6;stroke-dashoffset:0;stroke-opacity:1"
       d="m 275.71429,492.36218 225.82645,0"
       id="path4960"
       inkscape:connector-curvature="0" />
    <path
       style="fill:none;fill-rule:evenodd;stroke:#000000;stroke-width:1;stroke-linecap:butt;stroke-linejoin:miter;stroke-miterlimit:4;stroke-dasharray:6, 6;stroke-dashoffset:0;stroke-opacity:1"
       d="m 372.24121,544.76056 154.04827,0"
       id="path4962"
       inkscape:connector-curvature="0" />
    <path
       inkscape:connector-curvature="0"
       id="path4964"
       d="M 447.34862,375.28803 505.15819,244.7521"
       style="fill:none;fill-rule:evenodd;stroke:#000000;stroke-width:1;stroke-linecap:butt;stroke-linejoin:miter;stroke-miterlimit:4;stroke-dasharray:6, 6;stroke-dashoffset:0;stroke-opacity:1" />
    <path
       sodipodi:nodetypes="cc"
       inkscape:connector-curvature="0"
       id="path4966"
       d="M 447.38384,375.31138 619.05339,258.26058"
       style="fill:none;fill-rule:evenodd;stroke:#000000;stroke-width:1.5;stroke-linecap:butt;stroke-linejoin:miter;stroke-miterlimit:4;stroke-dasharray:none;stroke-opacity:1;marker-end:url(#Arrow1Lend)" />
    <path
       inkscape:connector-curvature="0"
       id="path4968"
       d="m 447.38384,375.31138 225.82645,0"
       style="fill:none;fill-rule:evenodd;stroke:#000000;stroke-width:1;stroke-linecap:butt;stroke-linejoin:miter;stroke-miterlimit:4;stroke-dasharray:6, 6;stroke-dashoffset:0;stroke-opacity:1" />
    <path
       style="fill:none;fill-rule:evenodd;stroke:#000000;stroke-width:1.5;stroke-linecap:butt;stroke-linejoin:miter;stroke-miterlimit:4;stroke-dasharray:none;stroke-opacity:1;marker-end:url(#marker5498)"
       d="M 447.38384,375.31138 277.93466,300.16875"
       id="path4970"
       inkscape:connector-curvature="0" />
    <path
       style="fill:none;fill-rule:evenodd;stroke:#000000;stroke-width:1.5;stroke-linecap:butt;stroke-linejoin:miter;stroke-miterlimit:4;stroke-dasharray:none;stroke-opacity:1;marker-end:url(#marker5470)"
       d="M 447.38384,375.31138 370.56146,262.6418"
       id="path4972"
       inkscape:connector-curvature="0"
       sodipodi:nodetypes="cc" />
    <path
       style="fill:none;fill-rule:evenodd;stroke:#000000;stroke-width:1px;stroke-linecap:butt;stroke-linejoin:miter;stroke-opacity:1"
       d="m 221.55739,375.31138 225.82645,0"
       id="path5164"
       inkscape:connector-curvature="0" />
    <g
       transform="matrix(0.49999989,0,0,0.49999992,125.52028,163.6557)"
       id="g5682">
      <g
         style="font-style:normal;font-variant:normal;font-weight:normal;font-stretch:normal;letter-spacing:normal;word-spacing:normal;text-anchor:start;fill:none;fill-opacity:1;fill-rule:evenodd;stroke:#000000;stroke-width:2.00000048;stroke-linecap:butt;stroke-linejoin:miter;stroke-miterlimit:10.43299961;stroke-dasharray:none;stroke-dashoffset:0;stroke-opacity:1"
         id="g5684"
         transform="matrix(1.0629921,0,0,-1.0629921,-186.02362,789.27165)"
         xml:space="preserve"
         stroke-miterlimit="10.433"
         font-style="normal"
         font-variant="normal"
         font-weight="normal"
         font-stretch="normal"
         font-size-adjust="none"
         letter-spacing="normal"
         word-spacing="normal"><path
           style="fill:#000000;stroke-width:0"
           inkscape:connector-curvature="0"
           d="m 478.75,446.64 -0.07,-0.06 -0.07,-0.07 -0.08,-0.07 -0.08,-0.07 -0.09,-0.08 -0.09,-0.08 -0.09,-0.09 -0.09,-0.09 -0.1,-0.09 -0.09,-0.09 -0.2,-0.19 -0.19,-0.19 -0.19,-0.21 -0.09,-0.1 -0.09,-0.1 -0.09,-0.1 -0.08,-0.11 -0.08,-0.1 -0.08,-0.1 -0.07,-0.1 -0.06,-0.1 -0.06,-0.1 -0.05,-0.1 -0.05,-0.1 -0.04,-0.09 -0.03,-0.1 -0.02,-0.09 -0.02,-0.09 0,-0.08 c 0,-0.5 0.5,-1 1,-1 0.44,0 0.69,0.35 0.94,0.65 0.6,0.75 1.74,2.14 3.94,3.24 0.35,0.2 0.84,0.45 0.84,1.05 0,0.49 -0.34,0.74 -0.69,0.99 -1.1,0.75 -1.65,1.64 -2.05,2.84 -0.1,0.45 -0.3,1.1 -0.99,1.1 -0.7,0 -1,-0.65 -1,-1.05 0,-0.25 0.4,-1.84 1.2,-2.89 l -16.79,0 c -0.85,0 -1.74,0 -1.74,-0.99 0,-1 0.89,-1 1.74,-1 z"
           id="path5686" /><path
           style="fill:#000000;stroke-width:0"
           inkscape:connector-curvature="0"
           d="m 470.64,437.88 0,0.05 0,0.06 0,0.05 0,0.05 0,0.05 0,0.05 0,0.04 0,0.05 0,0.04 0,0.04 0,0.04 0,0.04 0,0.04 -0.01,0.04 0,0.03 0,0.04 -0.01,0.03 0,0.03 -0.01,0.06 -0.01,0.05 -0.02,0.05 -0.01,0.05 -0.02,0.04 -0.02,0.04 -0.03,0.04 -0.03,0.03 -0.03,0.02 -0.03,0.03 -0.04,0.02 -0.05,0.02 -0.02,0.01 -0.03,0.01 -0.02,0 -0.03,0.01 -0.03,0.01 -0.03,0 -0.03,0.01 -0.03,0 -0.03,0.01 -0.04,0 -0.04,0 -0.03,0 -0.04,0.01 -0.04,0 -0.04,0 -0.05,0 -0.04,0 -0.05,0 -0.05,0.01 -0.05,0 -0.05,0 -0.05,0 c -3.09,-3.19 -7.47,-3.19 -9.07,-3.19 l 0,-1.55 c 1,0 3.94,0 6.53,1.3 l 0,-25.81 c 0,-1.79 -0.15,-2.39 -4.63,-2.39 l -1.6,0 0,-1.54 16.14,0 0,1.54 -1.59,0 c -4.49,0 -4.64,0.55 -4.64,2.39 z"
           id="path5688" /><path
           style="fill:#000000;stroke-width:0"
           inkscape:connector-curvature="0"
           d="m 491.02,398.69 0.07,-0.01 0.07,0 0.08,-0.01 0.07,0 0.15,-0.01 0.15,0 0.15,-0.01 0.15,0 0.15,0 0.14,0 c 6.28,0 12.03,5.13 12.03,10.64 l -1.25,-0.7 c 0,-3.52 -4.39,-7.57 -10.39,-7.57 -0.32,0 -0.8,0 -1.12,0.04 l 0,0 c 0.7,4.01 0.98,5.58 2.65,7.84 1.57,2.13 3.42,3.11 5.16,3.11 2.41,0 3.7,-1.61 3.7,-3.42 l 1.25,0.7 c 0,3.1 -1.84,5.09 -4.56,5.09 -4.81,0 -7.36,-6.14 -8.34,-8.76 -0.45,-1.28 -1.22,-3.73 -1.43,-4.39 -3.83,0.52 -6.28,2.27 -6.28,4.85 0,0.03 0.22,3.94 3.04,7.08 0.24,0.24 0.28,0.31 0.28,0.45 0,0.42 -0.46,0.42 -0.56,0.42 -0.31,0 -0.45,0 -1.11,-0.77 -1.96,-2.4 -2.86,-6.03 -2.86,-7.53 0,-3.11 2.26,-5.79 6.76,-6.77 -1.74,-5.4 -1.95,-6.06 -1.95,-6.37 0,-0.95 0.8,-1.12 1.18,-1.12 0.39,0 1.08,0.24 1.36,0.76 0.25,0.53 0.56,2.31 1.26,6.46 z"
           id="path5690" /></g>    </g>
    <path
       inkscape:connector-curvature="0"
       id="path5799"
       d="M 616.83302,450.45401 447.38384,375.31138"
       style="fill:none;fill-rule:evenodd;stroke:#000000;stroke-width:1;stroke-linecap:butt;stroke-linejoin:miter;stroke-miterlimit:4;stroke-dasharray:6, 6;stroke-dashoffset:0;stroke-opacity:1" />
    <path
       style="fill:none;fill-rule:evenodd;stroke:#000000;stroke-width:1;stroke-linecap:butt;stroke-linejoin:miter;stroke-miterlimit:4;stroke-dasharray:6, 6;stroke-dashoffset:0;stroke-opacity:1"
       d="M 543.91076,427.70976 619.05339,258.26058"
       id="path6467"
       inkscape:connector-curvature="0" />
    <path
       d="M 593.44874,313.00799 A 60.439034,60.439034 0 0 1 568.98498,292.11364"
       sodipodi:end="2.5470632"
       sodipodi:start="2.0082613"
       sodipodi:ry="60.439034"
       sodipodi:rx="60.439034"
       sodipodi:cy="258.26059"
       sodipodi:cx="619.05341"
       sodipodi:type="arc"
       id="path6469"
       style="fill:none;stroke:#000000"
       sodipodi:open="true" />
    <path
       d="m 386.76935,348.15084 a 66.421471,66.421471 0 0 1 23.5041,-27.92695"
       sodipodi:end="4.1195584"
       sodipodi:start="3.562854"
       sodipodi:ry="66.421471"
       sodipodi:rx="66.421471"
       sodipodi:cy="375.31137"
       sodipodi:cx="447.38385"
       sodipodi:type="arc"
       id="path6473"
       style="fill:none;stroke:#000000"
       sodipodi:open="true" />
    <path
       style="fill:none;stroke:#000000;marker-start:url(#marker7967)"
       id="path6475"
       sodipodi:type="arc"
       sodipodi:cx="447.38385"
       sodipodi:cy="375.31137"
       sodipodi:rx="83.251068"
       sodipodi:ry="83.251068"
       sodipodi:start="5.1418784"
       sodipodi:end="6.2781286"
       d="m 482.05015,299.62129 a 83.251068,83.251068 0 0 1 48.5837,75.26911"
       sodipodi:open="true" />
    <path
       style="fill:none;stroke:#000000"
       id="path6531"
       sodipodi:type="arc"
       sodipodi:cx="447.38385"
       sodipodi:cy="375.31137"
       sodipodi:rx="68.850632"
       sodipodi:ry="68.850632"
       sodipodi:start="3.562854"
       sodipodi:end="4.1195584"
       d="m 384.55256,347.15753 a 68.850632,68.850632 0 0 1 24.3637,-28.94829"
       sodipodi:open="true" />
    <path
       style="fill:none;stroke:#000000"
       id="path6533"
       sodipodi:type="arc"
       sodipodi:cx="619.05341"
       sodipodi:cy="258.26059"
       sodipodi:rx="62.868195"
       sodipodi:ry="62.868195"
       sodipodi:start="2.0082613"
       sodipodi:end="2.5470632"
       d="M 592.41964,315.20839 A 62.868195,62.868195 0 0 1 566.97263,293.47426"
       sodipodi:open="true" />
    <path
       d="m 532.18296,412.02333 a 17.099388,17.099388 0 0 1 22.25412,-7.94416"
       sodipodi:end="5.1323124"
       sodipodi:start="3.6067154"
       sodipodi:ry="17.099388"
       sodipodi:rx="17.099388"
       sodipodi:cy="419.69296"
       sodipodi:cx="547.46582"
       sodipodi:type="arc"
       id="path6537"
       style="fill:none;stroke:#000000;stroke-width:1;stroke-miterlimit:4;stroke-dasharray:none;stroke-dashoffset:0"
       sodipodi:open="true" />
    <path
       style="fill:none;fill-rule:evenodd;stroke:#000000;stroke-width:1;stroke-linecap:butt;stroke-linejoin:miter;stroke-miterlimit:4;stroke-dasharray:6, 6;stroke-dashoffset:0;stroke-opacity:1"
       d="m 337.03034,338.91725 33.61551,-76.21951"
       id="path7501"
       inkscape:connector-curvature="0" />
    <path
       d="m 349.35827,311.0767 a 18.982296,18.982296 0 0 1 10.03743,24.10776"
       sodipodi:end="0.36399256"
       sodipodi:start="5.1301379"
       sodipodi:ry="18.982296"
       sodipodi:rx="18.982296"
       sodipodi:cy="328.42661"
       sodipodi:cx="341.65707"
       sodipodi:type="arc"
       id="path7503"
       style="fill:none;stroke:#000000;stroke-width:1;stroke-miterlimit:4;stroke-dasharray:none;stroke-dashoffset:0"
       sodipodi:open="true" />
    <circle
       style="fill:#000000;stroke:#000000;stroke-width:1;stroke-miterlimit:4;stroke-dasharray:none;stroke-dashoffset:0"
       id="path7921"
       cx="372.24121"
       cy="544.76056"
       r="7.3801394" />
    <path
       style="fill:none;stroke:#000000;stroke-width:1"
       id="path7923"
       sodipodi:type="arc"
       sodipodi:cx="447.38385"
       sodipodi:cy="375.31137"
       sodipodi:rx="35.529175"
       sodipodi:ry="35.529175"
       sodipodi:start="5.1216216"
       sodipodi:end="5.6915327"
       d="m 461.5211,342.71597 a 35.529175,35.529175 0 0 1 15.35268,12.77959"
       sodipodi:open="true" />
    <path
       id="path7925"
       style="fill:none;stroke:#000000;stroke-width:1"
       sodipodi:type="arc"
       sodipodi:cx="447.38385"
       sodipodi:cy="375.31137"
       sodipodi:rx="38.171741"
       sodipodi:ry="38.171741"
       sodipodi:start="5.1413318"
       sodipodi:end="5.6744028"
       d="m 463.25984,340.59776 a 38.171741,38.171741 0 0 1 15.438,12.88437"
       sodipodi:open="true" />
  </g>
  <g
     inkscape:groupmode="layer"
     id="layer2"
     inkscape:label="TEX"
     transform="translate(-190.41496,-202.1162)">
    <g
       transform="matrix(0.49999998,0,0,0.49999998,193.71089,239.02975)"
       id="g3341">
      <g
         style="font-style:normal;font-variant:normal;font-weight:normal;font-stretch:normal;letter-spacing:normal;word-spacing:normal;text-anchor:start;fill:none;fill-opacity:1;fill-rule:evenodd;stroke:#000000;stroke-width:2;stroke-linecap:butt;stroke-linejoin:miter;stroke-miterlimit:10.43299961;stroke-dasharray:none;stroke-dashoffset:0;stroke-opacity:1"
         word-spacing="normal"
         letter-spacing="normal"
         font-size-adjust="none"
         font-stretch="normal"
         font-weight="normal"
         font-variant="normal"
         font-style="normal"
         stroke-miterlimit="10.433"
         xml:space="preserve"
         transform="matrix(1.0629921,0,0,-1.0629921,-186.02362,789.27165)"
         id="g5557"><path
           style="fill:#000000;stroke-width:0"
           inkscape:connector-curvature="0"
           id="path3344"
           d="m 460.38,408.94 -0.01,-0.07 -0.02,-0.08 -0.01,-0.07 -0.02,-0.08 -0.03,-0.16 -0.04,-0.16 -0.04,-0.16 -0.03,-0.16 -0.04,-0.16 -0.04,-0.16 -0.01,-0.08 -0.02,-0.07 -0.02,-0.07 -0.01,-0.07 -0.02,-0.07 -0.01,-0.07 -0.01,-0.06 -0.02,-0.06 -0.01,-0.05 -0.01,-0.06 -0.01,-0.05 0,-0.04 -0.01,-0.04 0,-0.04 -0.01,-0.03 0,-0.02 c 0,-0.9 0.7,-1.35 1.45,-1.35 0.6,0 1.5,0.4 1.84,1.4 0.1,0.2 1.8,6.97 1.99,7.87 0.4,1.64 1.3,5.13 1.6,6.47 0.2,0.65 1.59,2.99 2.79,4.09 0.4,0.34 1.84,1.64 3.99,1.64 1.29,0 2.03,-0.6 2.09,-0.6 -1.5,-0.25 -2.59,-1.44 -2.59,-2.73 0,-0.8 0.54,-1.75 1.89,-1.75 1.34,0 2.74,1.14 2.74,2.94 0,1.74 -1.6,3.24 -4.13,3.24 -3.24,0 -5.43,-2.44 -6.38,-3.84 -0.4,2.24 -2.19,3.84 -4.53,3.84 -2.3,0 -3.24,-1.95 -3.69,-2.84 -0.9,-1.7 -1.54,-4.68 -1.54,-4.83 0,-0.5 0.49,-0.5 0.59,-0.5 0.5,0 0.55,0.05 0.85,1.14 0.84,3.54 1.84,5.93 3.64,5.93 0.84,0 1.54,-0.4 1.54,-2.29 0,-1.04 -0.15,-1.59 -0.8,-4.18 z" /><path
           style="fill:#000000;stroke-width:0"
           inkscape:connector-curvature="0"
           id="path3346"
           d="m 489.3,420.79 0,0.06 -0.01,0.05 0,0.05 -0.01,0.06 -0.01,0.06 -0.02,0.05 -0.01,0.06 -0.02,0.06 -0.03,0.05 -0.02,0.06 -0.03,0.05 -0.03,0.06 -0.03,0.05 -0.03,0.05 -0.04,0.05 -0.04,0.05 -0.05,0.05 -0.04,0.05 -0.05,0.04 -0.06,0.05 -0.05,0.04 -0.06,0.03 -0.06,0.04 -0.07,0.03 -0.07,0.03 -0.07,0.02 -0.07,0.02 -0.08,0.02 -0.08,0.02 -0.08,0.01 -0.09,0 -0.09,0.01 c -0.94,0 -1.95,-0.91 -1.95,-1.92 0,-0.59 0.45,-1.32 1.39,-1.32 1.02,0 1.96,0.97 1.96,1.91 z" /><path
           style="fill:#000000;stroke-width:0"
           inkscape:connector-curvature="0"
           id="path3348"
           d="m 482.18,403.08 -0.05,-0.17 -0.05,-0.17 -0.03,-0.08 -0.03,-0.09 -0.02,-0.08 -0.03,-0.09 -0.02,-0.09 -0.02,-0.09 -0.01,-0.1 -0.02,-0.09 -0.01,-0.1 -0.01,-0.05 0,-0.05 0,-0.05 -0.01,-0.06 0,-0.05 0,-0.06 c 0,-1.63 1.4,-2.96 3.31,-2.96 3.49,0 5.02,4.81 5.02,5.33 0,0.46 -0.45,0.46 -0.56,0.46 -0.48,0 -0.52,-0.21 -0.66,-0.59 -0.8,-2.79 -2.33,-4.22 -3.69,-4.22 -0.7,0 -0.88,0.45 -0.88,1.22 0,0.8 0.25,1.46 0.56,2.23 0.35,0.94 0.74,1.88 1.12,2.79 0.31,0.84 1.57,4.01 1.71,4.43 0.1,0.34 0.21,0.77 0.21,1.11 0,1.64 -1.4,2.97 -3.31,2.97 -3.46,0 -5.06,-4.74 -5.06,-5.34 0,-0.45 0.49,-0.45 0.59,-0.45 0.49,0 0.52,0.17 0.63,0.56 0.91,2.99 2.44,4.25 3.73,4.25 0.56,0 0.87,-0.28 0.87,-1.22 0,-0.8 -0.21,-1.32 -1.08,-3.48 z" /></g>    </g>
    <g
       transform="matrix(0.49999998,0,0,0.49999998,172.44333,299.02616)"
       id="g3368">
      <g
         style="font-style:normal;font-variant:normal;font-weight:normal;font-stretch:normal;letter-spacing:normal;word-spacing:normal;text-anchor:start;fill:none;fill-opacity:1;fill-rule:evenodd;stroke:#000000;stroke-width:2;stroke-linecap:butt;stroke-linejoin:miter;stroke-miterlimit:10.43299961;stroke-dasharray:none;stroke-dashoffset:0;stroke-opacity:1"
         id="g3370"
         transform="matrix(1.0629921,0,0,-1.0629921,-186.02362,789.27165)"
         xml:space="preserve"
         stroke-miterlimit="10.433"
         font-style="normal"
         font-variant="normal"
         font-weight="normal"
         font-stretch="normal"
         font-size-adjust="none"
         letter-spacing="normal"
         word-spacing="normal"><path
           style="fill:#000000;stroke-width:0"
           inkscape:connector-curvature="0"
           d="m 464.47,397.53 -0.01,-0.03 -0.01,-0.03 -0.01,-0.03 -0.01,-0.02 -0.01,-0.06 -0.02,-0.05 -0.01,-0.05 -0.02,-0.04 -0.01,-0.04 -0.01,-0.04 -0.02,-0.04 -0.01,-0.04 -0.01,-0.03 -0.01,-0.03 -0.01,-0.03 -0.01,-0.03 0,-0.03 -0.01,-0.03 -0.01,-0.02 0,-0.03 -0.01,-0.02 0,-0.02 -0.01,-0.02 0,-0.02 -0.01,-0.05 0,-0.04 -0.01,-0.04 0,-0.04 0,-0.02 0,-0.02 c 0,-1.1 0.94,-1.4 1.44,-1.4 0.25,0 1.35,0.15 1.85,1.3 0.15,0.4 0.4,2.04 1.74,9.11 0.45,-0.05 0.8,-0.1 1.64,-0.1 8.27,0 15.95,7.82 15.95,15.69 l -1.4,-1.09 c 0,-5.63 -6.42,-11.71 -14.1,-11.71 l 0,0 c -0.39,0 -0.5,0 -0.89,0.05 -0.6,0 -0.65,0.05 -0.65,0.2 0,0.1 0.84,4.63 0.99,5.38 1.55,6.38 5.43,11.16 9.87,11.16 3.43,0 4.78,-2.69 4.78,-5.08 l 1.4,1.09 c 0,3.89 -1.95,6.88 -5.68,6.88 -7.23,0 -10.21,-9.66 -13.2,-19.38 -5.39,1 -8.17,3.79 -8.17,7.37 0,1.4 1.14,6.88 4.13,10.31 0.4,0.45 0.4,0.55 0.4,0.65 0,0.2 -0.1,0.5 -0.6,0.5 -1.39,0 -5.23,-7.22 -5.23,-12.01 0,-4.68 3.29,-8.32 8.62,-9.56 z"
           id="path3372" /><path
           style="fill:#000000;stroke-width:0"
           inkscape:connector-curvature="0"
           d="m 499.3,420.79 0,0.06 -0.01,0.05 0,0.05 -0.01,0.06 -0.01,0.06 -0.02,0.05 -0.01,0.06 -0.02,0.06 -0.03,0.05 -0.02,0.06 -0.03,0.05 -0.03,0.06 -0.03,0.05 -0.03,0.05 -0.04,0.05 -0.04,0.05 -0.05,0.05 -0.04,0.05 -0.05,0.04 -0.06,0.05 -0.05,0.04 -0.06,0.03 -0.06,0.04 -0.07,0.03 -0.07,0.03 -0.07,0.02 -0.07,0.02 -0.08,0.02 -0.08,0.02 -0.08,0.01 -0.09,0 -0.09,0.01 c -0.94,0 -1.95,-0.91 -1.95,-1.92 0,-0.59 0.45,-1.32 1.39,-1.32 1.02,0 1.96,0.97 1.96,1.91 z"
           id="path3374" /><path
           style="fill:#000000;stroke-width:0"
           inkscape:connector-curvature="0"
           d="m 492.18,403.08 -0.05,-0.17 -0.05,-0.17 -0.03,-0.08 -0.03,-0.09 -0.02,-0.08 -0.03,-0.09 -0.02,-0.09 -0.02,-0.09 -0.01,-0.1 -0.02,-0.09 -0.01,-0.1 -0.01,-0.05 0,-0.05 0,-0.05 -0.01,-0.06 0,-0.05 0,-0.06 c 0,-1.63 1.4,-2.96 3.31,-2.96 3.49,0 5.02,4.81 5.02,5.33 0,0.46 -0.45,0.46 -0.56,0.46 -0.48,0 -0.52,-0.21 -0.66,-0.59 -0.8,-2.79 -2.33,-4.22 -3.69,-4.22 -0.7,0 -0.88,0.45 -0.88,1.22 0,0.8 0.25,1.46 0.56,2.23 0.35,0.94 0.74,1.88 1.12,2.79 0.31,0.84 1.57,4.01 1.71,4.43 0.1,0.34 0.21,0.77 0.21,1.11 0,1.64 -1.4,2.97 -3.31,2.97 -3.46,0 -5.06,-4.74 -5.06,-5.34 0,-0.45 0.49,-0.45 0.59,-0.45 0.49,0 0.52,0.17 0.63,0.56 0.91,2.99 2.44,4.25 3.73,4.25 0.56,0 0.87,-0.28 0.87,-1.22 0,-0.8 -0.21,-1.32 -1.08,-3.48 z"
           id="path3376" /></g>    </g>
    <g
       id="g3989"
       transform="matrix(0.49999998,0,0,0.49999998,405.54213,85.036778)">
      <g
         id="g3991"
         transform="matrix(1.0629921,0,0,-1.0629921,-186.02362,789.27165)"
         xml:space="preserve"
         stroke-miterlimit="10.433"
         font-style="normal"
         font-variant="normal"
         font-weight="normal"
         font-stretch="normal"
         font-size-adjust="none"
         letter-spacing="normal"
         word-spacing="normal"
         style="font-style:normal;font-variant:normal;font-weight:normal;font-stretch:normal;letter-spacing:normal;word-spacing:normal;text-anchor:start;fill:none;fill-opacity:1;fill-rule:evenodd;stroke:#000000;stroke-width:2;stroke-linecap:butt;stroke-linejoin:miter;stroke-miterlimit:10.43299961;stroke-dasharray:none;stroke-dashoffset:0;stroke-opacity:1"><path
           d="m 494.01,436.19 0.04,0.16 0.04,0.16 0.04,0.15 0.04,0.14 0.04,0.14 0.04,0.12 0.04,0.13 0.05,0.11 0.05,0.11 0.05,0.1 0.06,0.1 0.07,0.09 0.07,0.08 0.08,0.08 0.09,0.08 0.09,0.06 0.11,0.07 0.11,0.05 0.13,0.06 0.14,0.05 0.15,0.04 0.16,0.04 0.09,0.01 0.09,0.02 0.09,0.02 0.1,0.01 0.1,0.01 0.1,0.02 0.11,0.01 0.11,0.01 0.12,0.01 0.12,0.01 0.13,0.01 0.13,0 0.13,0.01 0.14,0 0.14,0.01 0.15,0 0.15,0 0.16,0.01 0.16,0 0.17,0 c 1.3,0 1.7,0 1.7,0.99 0,0.55 -0.55,0.55 -0.7,0.55 l -12.8,0 c -0.4,0 -0.95,0 -0.95,-0.99 0,-0.55 0.45,-0.55 1.4,-0.55 0.09,0 1.04,0 1.89,-0.1 0.89,-0.1 1.34,-0.15 1.34,-0.8 0,-0.2 -0.05,-0.3 -0.2,-0.94 l -2.99,-12.16 -15.19,0 2.94,11.71 c 0.45,1.79 0.6,2.29 4.18,2.29 1.3,0 1.7,0 1.7,0.99 0,0.55 -0.55,0.55 -0.7,0.55 l -12.8,0 c -0.4,0 -0.95,0 -0.95,-0.99 0,-0.55 0.45,-0.55 1.4,-0.55 0.1,0 1.04,0 1.89,-0.1 0.9,-0.1 1.35,-0.15 1.35,-0.8 0,-0.2 -0.06,-0.35 -0.2,-0.94 l -6.68,-26.75 c -0.5,-1.95 -0.6,-2.35 -4.53,-2.35 -0.9,0 -1.35,0 -1.35,-0.99 0,-0.55 0.6,-0.55 0.7,-0.55 1.4,0 4.93,0.15 6.32,0.15 1.05,0 2.15,-0.05 3.2,-0.05 1.09,0 2.19,-0.1 3.23,-0.1 0.4,0 1,0 1,1 0,0.54 -0.45,0.54 -1.4,0.54 -1.84,0 -3.23,0 -3.23,0.9 0,0.3 0.1,0.55 0.15,0.85 l 3.38,13.65 15.19,0 c -2.09,-8.27 -3.23,-13.01 -3.43,-13.75 -0.5,-1.6 -1.44,-1.65 -4.53,-1.65 -0.75,0 -1.2,0 -1.2,-0.99 0,-0.55 0.6,-0.55 0.7,-0.55 1.39,0 4.93,0.15 6.32,0.15 1.05,0 2.14,-0.05 3.19,-0.05 1.1,0 2.19,-0.1 3.24,-0.1 0.4,0 1,0 1,1 0,0.54 -0.45,0.54 -1.4,0.54 -1.84,0 -3.24,0 -3.24,0.9 0,0.3 0.1,0.55 0.15,0.85 z"
           id="path3993"
           inkscape:connector-curvature="0"
           style="fill:#000000;stroke-width:0" /><path
           d="m 505.2,406.04 0,0.02 0,0.01 0,0.02 0.01,0.03 0.01,0.02 0,0.03 0.01,0.04 0.01,0.04 0.01,0.04 0.01,0.04 0.01,0.05 0.02,0.05 0.01,0.05 0.01,0.06 0.03,0.12 0.03,0.12 0.04,0.14 0.03,0.14 0.04,0.14 0.04,0.15 0.04,0.16 0.08,0.31 0.07,0.31 0.04,0.15 0.04,0.15 0.04,0.14 0.04,0.14 0.03,0.14 0.04,0.12 0.03,0.12 0.01,0.05 0.01,0.05 0.02,0.05 0.01,0.05 0.01,0.04 0.01,0.04 0.01,0.04 0.01,0.03 0.01,0.03 0.01,0.03 0.01,0.02 0,0.02 0.01,0.02 0,0.01 c 0.07,0.27 1.08,2.02 2.2,2.86 0.38,0.27 1.32,0.97 2.82,0.97 0.35,0 1.22,-0.03 1.92,-0.49 -1.11,-0.31 -1.54,-1.29 -1.54,-1.91 0,-0.77 0.6,-1.3 1.4,-1.3 0.8,0 1.95,0.67 1.95,2.13 0,1.81 -1.92,2.55 -3.69,2.55 -1.82,0 -3.39,-0.74 -4.92,-2.48 -0.63,2.13 -2.76,2.48 -3.59,2.48 -1.29,0 -2.16,-0.81 -2.72,-1.78 -0.8,-1.36 -1.29,-3.39 -1.29,-3.56 0,-0.45 0.49,-0.45 0.59,-0.45 0.49,0 0.52,0.11 0.77,1.05 0.52,2.12 1.18,3.76 2.54,3.76 0.91,0 1.16,-0.77 1.16,-1.71 0,-0.66 -0.32,-1.95 -0.56,-2.89 -0.25,-0.94 -0.6,-2.37 -0.77,-3.14 l -1.12,-4.46 c -0.14,-0.46 -0.34,-1.33 -0.34,-1.43 0,-0.77 0.62,-1.12 1.18,-1.12 0.52,0 1.22,0.31 1.5,1.01 0.07,0.21 0.45,1.75 0.66,2.62 z"
           id="path3995"
           inkscape:connector-curvature="0"
           style="fill:#000000;stroke-width:0" /><path
           d="m 524.86,409.54 0,0.06 0,0.05 -0.01,0.06 -0.01,0.05 -0.01,0.05 -0.01,0.05 -0.02,0.05 -0.02,0.05 -0.02,0.05 -0.02,0.05 -0.03,0.04 -0.02,0.04 -0.03,0.05 -0.03,0.04 -0.04,0.04 -0.03,0.03 -0.04,0.04 -0.04,0.03 -0.04,0.03 -0.04,0.03 -0.05,0.03 -0.04,0.03 -0.05,0.02 -0.05,0.02 -0.05,0.02 -0.05,0.02 -0.06,0.01 -0.05,0.01 -0.06,0.01 -0.05,0.01 -0.06,0 -0.06,0 c -0.7,0 -1.52,-0.67 -1.52,-1.49 0,-0.7 0.55,-1.07 1.07,-1.07 0.82,0 1.54,0.74 1.54,1.49 z"
           id="path3997"
           inkscape:connector-curvature="0"
           style="fill:#000000;stroke-width:0" /><path
           d="m 526.03,397.59 0,0.01 0,0.02 0,0.01 0,0.02 0,0.01 -0.01,0.01 0,0.02 0,0.01 -0.01,0.01 0,0.01 -0.01,0.02 0,0.01 -0.01,0.01 -0.01,0.01 -0.01,0.01 0,0.01 -0.01,0.01 -0.01,0 -0.01,0.01 -0.01,0.01 -0.02,0.02 -0.01,0.01 -0.03,0.01 -0.02,0.01 -0.02,0.01 -0.02,0.01 -0.02,0.01 -0.02,0 -0.03,0.01 -0.02,0.01 -0.02,0 -0.02,0 -0.02,0.01 -0.03,0 -0.02,0 -0.01,0 -0.02,0 -0.02,0 -0.01,0 -0.02,0 -0.01,0 0,0 -0.01,0 c -0.42,0 -0.45,-0.09 -0.6,-0.57 -0.42,-1.37 -1.54,-2.79 -2.79,-2.79 -0.57,0 -0.74,0.4 -0.74,0.95 0,0.52 0.12,0.8 0.32,1.27 0.2,0.5 0.4,1 0.52,1.34 0.1,0.23 1.07,2.55 1.43,3.44 0.19,0.5 0.34,0.82 0.34,1.25 0,1.19 -1.15,2.19 -2.71,2.19 -2.62,0 -4.01,-3.19 -4.01,-3.86 0,-0.35 0.39,-0.35 0.52,-0.35 0.43,0 0.45,0.13 0.57,0.5 0.55,1.77 1.74,2.86 2.82,2.86 0.47,0 0.75,-0.27 0.75,-0.95 0,-0.09 0,-0.42 -0.16,-0.89 -0.17,-0.45 -1.29,-3.11 -1.64,-3.96 -0.17,-0.43 -0.17,-0.47 -0.55,-1.32 -0.12,-0.35 -0.27,-0.7 -0.27,-1.12 0,-1.3 1.22,-2.19 2.71,-2.19 2.62,0 4.01,3.23 4.01,3.86 z"
           id="path3999"
           inkscape:connector-curvature="0"
           style="fill:#000000;stroke-width:0" /></g>    </g>
    <g
       id="g4085"
       transform="matrix(0.49999998,0,0,0.49999998,248.00457,95.682712)">
      <g
         word-spacing="normal"
         letter-spacing="normal"
         font-size-adjust="none"
         font-stretch="normal"
         font-weight="normal"
         font-variant="normal"
         font-style="normal"
         stroke-miterlimit="10.433"
         xml:space="preserve"
         transform="matrix(1.0629921,0,0,-1.0629921,-186.02362,789.27165)"
         id="g4087"
         style="font-style:normal;font-variant:normal;font-weight:normal;font-stretch:normal;letter-spacing:normal;word-spacing:normal;text-anchor:start;fill:none;fill-opacity:1;fill-rule:evenodd;stroke:#000000;stroke-width:2;stroke-linecap:butt;stroke-linejoin:miter;stroke-miterlimit:10.43299961;stroke-dasharray:none;stroke-dashoffset:0;stroke-opacity:1"><path
           id="path4089"
           d="m 494.01,436.19 0.04,0.16 0.04,0.16 0.04,0.15 0.04,0.14 0.04,0.14 0.04,0.12 0.04,0.13 0.05,0.11 0.05,0.11 0.05,0.1 0.06,0.1 0.07,0.09 0.07,0.08 0.08,0.08 0.09,0.08 0.09,0.06 0.11,0.07 0.11,0.05 0.13,0.06 0.14,0.05 0.15,0.04 0.16,0.04 0.09,0.01 0.09,0.02 0.09,0.02 0.1,0.01 0.1,0.01 0.1,0.02 0.11,0.01 0.11,0.01 0.12,0.01 0.12,0.01 0.13,0.01 0.13,0 0.13,0.01 0.14,0 0.14,0.01 0.15,0 0.15,0 0.16,0.01 0.16,0 0.17,0 c 1.3,0 1.7,0 1.7,0.99 0,0.55 -0.55,0.55 -0.7,0.55 l -12.8,0 c -0.4,0 -0.95,0 -0.95,-0.99 0,-0.55 0.45,-0.55 1.4,-0.55 0.09,0 1.04,0 1.89,-0.1 0.89,-0.1 1.34,-0.15 1.34,-0.8 0,-0.2 -0.05,-0.3 -0.2,-0.94 l -2.99,-12.16 -15.19,0 2.94,11.71 c 0.45,1.79 0.6,2.29 4.18,2.29 1.3,0 1.7,0 1.7,0.99 0,0.55 -0.55,0.55 -0.7,0.55 l -12.8,0 c -0.4,0 -0.95,0 -0.95,-0.99 0,-0.55 0.45,-0.55 1.4,-0.55 0.1,0 1.04,0 1.89,-0.1 0.9,-0.1 1.35,-0.15 1.35,-0.8 0,-0.2 -0.06,-0.35 -0.2,-0.94 l -6.68,-26.75 c -0.5,-1.95 -0.6,-2.35 -4.53,-2.35 -0.9,0 -1.35,0 -1.35,-0.99 0,-0.55 0.6,-0.55 0.7,-0.55 1.4,0 4.93,0.15 6.32,0.15 1.05,0 2.15,-0.05 3.2,-0.05 1.09,0 2.19,-0.1 3.23,-0.1 0.4,0 1,0 1,1 0,0.54 -0.45,0.54 -1.4,0.54 -1.84,0 -3.23,0 -3.23,0.9 0,0.3 0.1,0.55 0.15,0.85 l 3.38,13.65 15.19,0 c -2.09,-8.27 -3.23,-13.01 -3.43,-13.75 -0.5,-1.6 -1.44,-1.65 -4.53,-1.65 -0.75,0 -1.2,0 -1.2,-0.99 0,-0.55 0.6,-0.55 0.7,-0.55 1.39,0 4.93,0.15 6.32,0.15 1.05,0 2.14,-0.05 3.19,-0.05 1.1,0 2.19,-0.1 3.24,-0.1 0.4,0 1,0 1,1 0,0.54 -0.45,0.54 -1.4,0.54 -1.84,0 -3.24,0 -3.24,0.9 0,0.3 0.1,0.55 0.15,0.85 z"
           inkscape:connector-curvature="0"
           style="fill:#000000;stroke-width:0" /><path
           id="path4091"
           d="m 508.02,398.69 0.07,-0.01 0.07,0 0.08,-0.01 0.07,0 0.15,-0.01 0.15,0 0.15,-0.01 0.15,0 0.15,0 0.14,0 c 6.28,0 12.03,5.13 12.03,10.64 l -1.25,-0.7 c 0,-3.52 -4.39,-7.57 -10.39,-7.57 -0.32,0 -0.8,0 -1.12,0.04 l 0,0 c 0.7,4.01 0.98,5.58 2.65,7.84 1.57,2.13 3.42,3.11 5.16,3.11 2.41,0 3.7,-1.61 3.7,-3.42 l 1.25,0.7 c 0,3.1 -1.84,5.09 -4.56,5.09 -4.81,0 -7.36,-6.14 -8.34,-8.76 -0.45,-1.28 -1.22,-3.73 -1.43,-4.39 -3.83,0.52 -6.28,2.27 -6.28,4.85 0,0.03 0.22,3.94 3.04,7.08 0.24,0.24 0.28,0.31 0.28,0.45 0,0.42 -0.46,0.42 -0.56,0.42 -0.31,0 -0.45,0 -1.11,-0.77 -1.96,-2.4 -2.86,-6.03 -2.86,-7.53 0,-3.11 2.26,-5.79 6.76,-6.77 -1.74,-5.4 -1.95,-6.06 -1.95,-6.37 0,-0.95 0.8,-1.12 1.18,-1.12 0.39,0 1.08,0.24 1.36,0.76 0.25,0.53 0.56,2.31 1.26,6.46 z"
           inkscape:connector-curvature="0"
           style="fill:#000000;stroke-width:0" /><path
           id="path4093"
           d="m 532.86,409.54 0,0.06 0,0.05 -0.01,0.06 -0.01,0.05 -0.01,0.05 -0.01,0.05 -0.02,0.05 -0.02,0.05 -0.02,0.05 -0.02,0.05 -0.03,0.04 -0.02,0.04 -0.03,0.05 -0.03,0.04 -0.04,0.04 -0.03,0.03 -0.04,0.04 -0.04,0.03 -0.04,0.03 -0.04,0.03 -0.05,0.03 -0.04,0.03 -0.05,0.02 -0.05,0.02 -0.05,0.02 -0.05,0.02 -0.06,0.01 -0.05,0.01 -0.06,0.01 -0.05,0.01 -0.06,0 -0.06,0 c -0.7,0 -1.52,-0.67 -1.52,-1.49 0,-0.7 0.55,-1.07 1.07,-1.07 0.82,0 1.54,0.74 1.54,1.49 z"
           inkscape:connector-curvature="0"
           style="fill:#000000;stroke-width:0" /><path
           id="path4095"
           d="m 534.03,397.59 0,0.01 0,0.02 0,0.01 0,0.02 0,0.01 -0.01,0.01 0,0.02 0,0.01 -0.01,0.01 0,0.01 -0.01,0.02 0,0.01 -0.01,0.01 -0.01,0.01 -0.01,0.01 0,0.01 -0.01,0.01 -0.01,0 -0.01,0.01 -0.01,0.01 -0.02,0.02 -0.01,0.01 -0.03,0.01 -0.02,0.01 -0.02,0.01 -0.02,0.01 -0.02,0.01 -0.02,0 -0.03,0.01 -0.02,0.01 -0.02,0 -0.02,0 -0.02,0.01 -0.03,0 -0.02,0 -0.01,0 -0.02,0 -0.02,0 -0.01,0 -0.02,0 -0.01,0 0,0 -0.01,0 c -0.42,0 -0.45,-0.09 -0.6,-0.57 -0.42,-1.37 -1.54,-2.79 -2.79,-2.79 -0.57,0 -0.74,0.4 -0.74,0.95 0,0.52 0.12,0.8 0.32,1.27 0.2,0.5 0.4,1 0.52,1.34 0.1,0.23 1.07,2.55 1.43,3.44 0.19,0.5 0.34,0.82 0.34,1.25 0,1.19 -1.15,2.19 -2.71,2.19 -2.62,0 -4.01,-3.19 -4.01,-3.86 0,-0.35 0.39,-0.35 0.52,-0.35 0.43,0 0.45,0.13 0.57,0.5 0.55,1.77 1.74,2.86 2.82,2.86 0.47,0 0.75,-0.27 0.75,-0.95 0,-0.09 0,-0.42 -0.16,-0.89 -0.17,-0.45 -1.29,-3.11 -1.64,-3.96 -0.17,-0.43 -0.17,-0.47 -0.55,-1.32 -0.12,-0.35 -0.27,-0.7 -0.27,-1.12 0,-1.3 1.22,-2.19 2.71,-2.19 2.62,0 4.01,3.23 4.01,3.86 z"
           inkscape:connector-curvature="0"
           style="fill:#000000;stroke-width:0" /></g>    </g>
    <g
       transform="matrix(0.49999982,0,0,0.49999985,240.43105,352.25057)"
       id="g5094">
      <g
         style="font-style:normal;font-variant:normal;font-weight:normal;font-stretch:normal;letter-spacing:normal;word-spacing:normal;text-anchor:start;fill:none;fill-opacity:1;fill-rule:evenodd;stroke:#000000;stroke-width:2.00000072;stroke-linecap:butt;stroke-linejoin:miter;stroke-miterlimit:10.43299961;stroke-dasharray:none;stroke-dashoffset:0;stroke-opacity:1"
         id="g5096"
         transform="matrix(1.0629921,0,0,-1.0629921,-186.02362,789.27165)"
         xml:space="preserve"
         stroke-miterlimit="10.433"
         font-style="normal"
         font-variant="normal"
         font-weight="normal"
         font-stretch="normal"
         font-size-adjust="none"
         letter-spacing="normal"
         word-spacing="normal"><path
           style="fill:#000000;stroke-width:0"
           inkscape:connector-curvature="0"
           d="m 464.47,397.53 -0.01,-0.03 -0.01,-0.03 -0.01,-0.03 -0.01,-0.02 -0.01,-0.06 -0.02,-0.05 -0.01,-0.05 -0.02,-0.04 -0.01,-0.04 -0.01,-0.04 -0.02,-0.04 -0.01,-0.04 -0.01,-0.03 -0.01,-0.03 -0.01,-0.03 -0.01,-0.03 0,-0.03 -0.01,-0.03 -0.01,-0.02 0,-0.03 -0.01,-0.02 0,-0.02 -0.01,-0.02 0,-0.02 -0.01,-0.05 0,-0.04 -0.01,-0.04 0,-0.04 0,-0.02 0,-0.02 c 0,-1.1 0.94,-1.4 1.44,-1.4 0.25,0 1.35,0.15 1.85,1.3 0.15,0.4 0.4,2.04 1.74,9.11 0.45,-0.05 0.8,-0.1 1.64,-0.1 8.27,0 15.95,7.82 15.95,15.69 l -1.4,-1.09 c 0,-5.63 -6.42,-11.71 -14.1,-11.71 l 0,0 c -0.39,0 -0.5,0 -0.89,0.05 -0.6,0 -0.65,0.05 -0.65,0.2 0,0.1 0.84,4.63 0.99,5.38 1.55,6.38 5.43,11.16 9.87,11.16 3.43,0 4.78,-2.69 4.78,-5.08 l 1.4,1.09 c 0,3.89 -1.95,6.88 -5.68,6.88 -7.23,0 -10.21,-9.66 -13.2,-19.38 -5.39,1 -8.17,3.79 -8.17,7.37 0,1.4 1.14,6.88 4.13,10.31 0.4,0.45 0.4,0.55 0.4,0.65 0,0.2 -0.1,0.5 -0.6,0.5 -1.39,0 -5.23,-7.22 -5.23,-12.01 0,-4.68 3.29,-8.32 8.62,-9.56 z"
           id="path5098" /></g>    </g>
    <g
       id="g5166"
       transform="matrix(0.49999982,0,0,0.49999985,327.1317,154.00432)">
      <g
         word-spacing="normal"
         letter-spacing="normal"
         font-size-adjust="none"
         font-stretch="normal"
         font-weight="normal"
         font-variant="normal"
         font-style="normal"
         stroke-miterlimit="10.433"
         xml:space="preserve"
         transform="matrix(1.0629921,0,0,-1.0629921,-186.02362,789.27165)"
         id="g5168"
         style="font-style:normal;font-variant:normal;font-weight:normal;font-stretch:normal;letter-spacing:normal;word-spacing:normal;text-anchor:start;fill:none;fill-opacity:1;fill-rule:evenodd;stroke:#000000;stroke-width:2.00000072;stroke-linecap:butt;stroke-linejoin:miter;stroke-miterlimit:10.43299961;stroke-dasharray:none;stroke-dashoffset:0;stroke-opacity:1"><path
           id="path5170"
           d="m 464.47,397.53 -0.01,-0.03 -0.01,-0.03 -0.01,-0.03 -0.01,-0.02 -0.01,-0.06 -0.02,-0.05 -0.01,-0.05 -0.02,-0.04 -0.01,-0.04 -0.01,-0.04 -0.02,-0.04 -0.01,-0.04 -0.01,-0.03 -0.01,-0.03 -0.01,-0.03 -0.01,-0.03 0,-0.03 -0.01,-0.03 -0.01,-0.02 0,-0.03 -0.01,-0.02 0,-0.02 -0.01,-0.02 0,-0.02 -0.01,-0.05 0,-0.04 -0.01,-0.04 0,-0.04 0,-0.02 0,-0.02 c 0,-1.1 0.94,-1.4 1.44,-1.4 0.25,0 1.35,0.15 1.85,1.3 0.15,0.4 0.4,2.04 1.74,9.11 0.45,-0.05 0.8,-0.1 1.64,-0.1 8.27,0 15.95,7.82 15.95,15.69 l -1.4,-1.09 c 0,-5.63 -6.42,-11.71 -14.1,-11.71 l 0,0 c -0.39,0 -0.5,0 -0.89,0.05 -0.6,0 -0.65,0.05 -0.65,0.2 0,0.1 0.84,4.63 0.99,5.38 1.55,6.38 5.43,11.16 9.87,11.16 3.43,0 4.78,-2.69 4.78,-5.08 l 1.4,1.09 c 0,3.89 -1.95,6.88 -5.68,6.88 -7.23,0 -10.21,-9.66 -13.2,-19.38 -5.39,1 -8.17,3.79 -8.17,7.37 0,1.4 1.14,6.88 4.13,10.31 0.4,0.45 0.4,0.55 0.4,0.65 0,0.2 -0.1,0.5 -0.6,0.5 -1.39,0 -5.23,-7.22 -5.23,-12.01 0,-4.68 3.29,-8.32 8.62,-9.56 z"
           inkscape:connector-curvature="0"
           style="fill:#000000;stroke-width:0" /></g>    </g>
    <g
       id="g5172"
       transform="matrix(0.49999998,0,0,0.49999998,338.49323,183.4679)">
      <g
         word-spacing="normal"
         letter-spacing="normal"
         font-size-adjust="none"
         font-stretch="normal"
         font-weight="normal"
         font-variant="normal"
         font-style="normal"
         stroke-miterlimit="10.433"
         xml:space="preserve"
         transform="matrix(1.0629921,0,0,-1.0629921,-186.02362,789.27165)"
         id="g5174"
         style="font-style:normal;font-variant:normal;font-weight:normal;font-stretch:normal;letter-spacing:normal;word-spacing:normal;text-anchor:start;fill:none;fill-opacity:1;fill-rule:evenodd;stroke:#000000;stroke-width:2;stroke-linecap:butt;stroke-linejoin:miter;stroke-miterlimit:10.43299961;stroke-dasharray:none;stroke-dashoffset:0;stroke-opacity:1"><path
           id="path5176"
           d="m 464.47,397.53 -0.01,-0.03 -0.01,-0.03 -0.01,-0.03 -0.01,-0.02 -0.01,-0.06 -0.02,-0.05 -0.01,-0.05 -0.02,-0.04 -0.01,-0.04 -0.01,-0.04 -0.02,-0.04 -0.01,-0.04 -0.01,-0.03 -0.01,-0.03 -0.01,-0.03 -0.01,-0.03 0,-0.03 -0.01,-0.03 -0.01,-0.02 0,-0.03 -0.01,-0.02 0,-0.02 -0.01,-0.02 0,-0.02 -0.01,-0.05 0,-0.04 -0.01,-0.04 0,-0.04 0,-0.02 0,-0.02 c 0,-1.1 0.94,-1.4 1.44,-1.4 0.25,0 1.35,0.15 1.85,1.3 0.15,0.4 0.4,2.04 1.74,9.11 0.45,-0.05 0.8,-0.1 1.64,-0.1 8.27,0 15.95,7.82 15.95,15.69 l -1.4,-1.09 c 0,-5.63 -6.42,-11.71 -14.1,-11.71 l 0,0 c -0.39,0 -0.5,0 -0.89,0.05 -0.6,0 -0.65,0.05 -0.65,0.2 0,0.1 0.84,4.63 0.99,5.38 1.55,6.38 5.43,11.16 9.87,11.16 3.43,0 4.78,-2.69 4.78,-5.08 l 1.4,1.09 c 0,3.89 -1.95,6.88 -5.68,6.88 -7.23,0 -10.21,-9.66 -13.2,-19.38 -5.39,1 -8.17,3.79 -8.17,7.37 0,1.4 1.14,6.88 4.13,10.31 0.4,0.45 0.4,0.55 0.4,0.65 0,0.2 -0.1,0.5 -0.6,0.5 -1.39,0 -5.23,-7.22 -5.23,-12.01 0,-4.68 3.29,-8.32 8.62,-9.56 z"
           inkscape:connector-curvature="0"
           style="fill:#000000;stroke-width:0" /><path
           id="path5178"
           d="m 499.3,420.79 0,0.06 -0.01,0.05 0,0.05 -0.01,0.06 -0.01,0.06 -0.02,0.05 -0.01,0.06 -0.02,0.06 -0.03,0.05 -0.02,0.06 -0.03,0.05 -0.03,0.06 -0.03,0.05 -0.03,0.05 -0.04,0.05 -0.04,0.05 -0.05,0.05 -0.04,0.05 -0.05,0.04 -0.06,0.05 -0.05,0.04 -0.06,0.03 -0.06,0.04 -0.07,0.03 -0.07,0.03 -0.07,0.02 -0.07,0.02 -0.08,0.02 -0.08,0.02 -0.08,0.01 -0.09,0 -0.09,0.01 c -0.94,0 -1.95,-0.91 -1.95,-1.92 0,-0.59 0.45,-1.32 1.39,-1.32 1.02,0 1.96,0.97 1.96,1.91 z"
           inkscape:connector-curvature="0"
           style="fill:#000000;stroke-width:0" /><path
           id="path5180"
           d="m 492.18,403.08 -0.05,-0.17 -0.05,-0.17 -0.03,-0.08 -0.03,-0.09 -0.02,-0.08 -0.03,-0.09 -0.02,-0.09 -0.02,-0.09 -0.01,-0.1 -0.02,-0.09 -0.01,-0.1 -0.01,-0.05 0,-0.05 0,-0.05 -0.01,-0.06 0,-0.05 0,-0.06 c 0,-1.63 1.4,-2.96 3.31,-2.96 3.49,0 5.02,4.81 5.02,5.33 0,0.46 -0.45,0.46 -0.56,0.46 -0.48,0 -0.52,-0.21 -0.66,-0.59 -0.8,-2.79 -2.33,-4.22 -3.69,-4.22 -0.7,0 -0.88,0.45 -0.88,1.22 0,0.8 0.25,1.46 0.56,2.23 0.35,0.94 0.74,1.88 1.12,2.79 0.31,0.84 1.57,4.01 1.71,4.43 0.1,0.34 0.21,0.77 0.21,1.11 0,1.64 -1.4,2.97 -3.31,2.97 -3.46,0 -5.06,-4.74 -5.06,-5.34 0,-0.45 0.49,-0.45 0.59,-0.45 0.49,0 0.52,0.17 0.63,0.56 0.91,2.99 2.44,4.25 3.73,4.25 0.56,0 0.87,-0.28 0.87,-1.22 0,-0.8 -0.21,-1.32 -1.08,-3.48 z"
           inkscape:connector-curvature="0"
           style="fill:#000000;stroke-width:0" /></g>    </g>
    <path
       sodipodi:open="true"
       d="m 342.815,447.43067 a 80.754852,80.754852 0 0 1 13.64974,44.08746"
       sodipodi:end="6.2727331"
       sodipodi:start="5.6931456"
       sodipodi:ry="80.754852"
       sodipodi:rx="80.754852"
       sodipodi:cy="492.36218"
       sodipodi:cx="275.71429"
       sodipodi:type="arc"
       id="path6477"
       style="fill:none;stroke:#000000;marker-start:url(#marker8093)" />
    <path
       sodipodi:open="true"
       d="m 392.8233,497.79398 a 51.278477,51.278477 0 0 1 30.69632,46.88029"
       sodipodi:end="6.2815026"
       sodipodi:start="5.1254107"
       sodipodi:ry="51.278477"
       sodipodi:rx="51.278477"
       sodipodi:cy="544.76056"
       sodipodi:cx="372.24121"
       sodipodi:type="arc"
       id="path6479"
       style="fill:none;stroke:#000000;marker-start:url(#marker8053)" />
    <path
       sodipodi:open="true"
       d="m 508.55061,332.95633 a 74.399742,74.399742 0 0 1 13.232,41.97292"
       sodipodi:end="6.2780493"
       sodipodi:start="5.6775431"
       sodipodi:ry="74.399742"
       sodipodi:rx="74.399742"
       sodipodi:cy="375.31137"
       sodipodi:cx="447.38385"
       sodipodi:type="arc"
       id="path6481"
       style="fill:none;stroke:#000000;marker-start:url(#marker8015)" />
    <path
       d="m 428.13244,366.12126 a 21.332483,21.332483 0 0 1 27.83243,-10.3404 l -8.58102,19.53051 z"
       sodipodi:end="5.1263638"
       sodipodi:start="3.5869757"
       sodipodi:ry="21.332483"
       sodipodi:rx="21.332483"
       sodipodi:cy="375.31137"
       sodipodi:cx="447.38385"
       sodipodi:type="arc"
       id="path7505"
       style="fill:none;stroke:#000000;stroke-width:1;stroke-miterlimit:4;stroke-dasharray:none;stroke-dashoffset:0" />
    <path
       sodipodi:open="true"
       style="fill:none;stroke:#000000;stroke-width:1;stroke-miterlimit:4;stroke-dasharray:none;stroke-dashoffset:0"
       id="path7507"
       sodipodi:type="arc"
       sodipodi:cx="447.38385"
       sodipodi:cy="375.31137"
       sodipodi:rx="25.381083"
       sodipodi:ry="25.381083"
       sodipodi:start="4.1731568"
       sodipodi:end="5.6594512"
       d="m 434.35124,353.53178 a 25.381083,25.381083 0 0 1 33.63451,6.95526" />
    <circle
       r="1.496645"
       cy="410.41791"
       cx="544.10699"
       id="path7509"
       style="fill:#000000;stroke:#000000;stroke-width:1;stroke-miterlimit:4;stroke-dasharray:none;stroke-dashoffset:0" />
    <circle
       style="fill:#000000;stroke:#000000;stroke-width:1;stroke-miterlimit:4;stroke-dasharray:none;stroke-dashoffset:0"
       id="circle7511"
       cx="442.90732"
       cy="364.18384"
       r="1.496645" />
    <circle
       r="1.496645"
       cy="362.46616"
       cx="450.78"
       id="circle7513"
       style="fill:#000000;stroke:#000000;stroke-width:1;stroke-miterlimit:4;stroke-dasharray:none;stroke-dashoffset:0" />
    <circle
       style="fill:#000000;stroke:#000000;stroke-width:1;stroke-miterlimit:4;stroke-dasharray:none;stroke-dashoffset:0"
       id="circle7515"
       cx="351.79855"
       cy="324.58762"
       r="1.496645" />
    <g
       id="g7603"
       transform="matrix(0.49999996,0,0,0.49999985,457.18488,126.48983)">
      <g
         word-spacing="normal"
         letter-spacing="normal"
         font-size-adjust="none"
         font-stretch="normal"
         font-weight="normal"
         font-variant="normal"
         font-style="normal"
         stroke-miterlimit="10.433"
         xml:space="preserve"
         transform="matrix(1.0629921,0,0,-1.0629921,-186.02362,789.27165)"
         id="content"
         style="font-style:normal;font-variant:normal;font-weight:normal;font-stretch:normal;letter-spacing:normal;word-spacing:normal;text-anchor:start;fill:none;fill-opacity:1;fill-rule:evenodd;stroke:#000000;stroke-width:2.00000048;stroke-linecap:butt;stroke-linejoin:miter;stroke-miterlimit:10.43299961;stroke-dasharray:none;stroke-dashoffset:0;stroke-opacity:1"><path
           id="path7606"
           d="m 464.47,397.53 -0.01,-0.03 -0.01,-0.03 -0.01,-0.03 -0.01,-0.02 -0.01,-0.06 -0.02,-0.05 -0.01,-0.05 -0.02,-0.04 -0.01,-0.04 -0.01,-0.04 -0.02,-0.04 -0.01,-0.04 -0.01,-0.03 -0.01,-0.03 -0.01,-0.03 -0.01,-0.03 0,-0.03 -0.01,-0.03 -0.01,-0.02 0,-0.03 -0.01,-0.02 0,-0.02 -0.01,-0.02 0,-0.02 -0.01,-0.05 0,-0.04 -0.01,-0.04 0,-0.04 0,-0.02 0,-0.02 c 0,-1.1 0.94,-1.4 1.44,-1.4 0.25,0 1.35,0.15 1.85,1.3 0.15,0.4 0.4,2.04 1.74,9.11 0.45,-0.05 0.8,-0.1 1.64,-0.1 8.27,0 15.95,7.82 15.95,15.69 l -1.4,-1.09 c 0,-5.63 -6.42,-11.71 -14.1,-11.71 l 0,0 c -0.39,0 -0.5,0 -0.89,0.05 -0.6,0 -0.65,0.05 -0.65,0.2 0,0.1 0.84,4.63 0.99,5.38 1.55,6.38 5.43,11.16 9.87,11.16 3.43,0 4.78,-2.69 4.78,-5.08 l 1.4,1.09 c 0,3.89 -1.95,6.88 -5.68,6.88 -7.23,0 -10.21,-9.66 -13.2,-19.38 -5.39,1 -8.17,3.79 -8.17,7.37 0,1.4 1.14,6.88 4.13,10.31 0.4,0.45 0.4,0.55 0.4,0.65 0,0.2 -0.1,0.5 -0.6,0.5 -1.39,0 -5.23,-7.22 -5.23,-12.01 0,-4.68 3.29,-8.32 8.62,-9.56 z"
           inkscape:connector-curvature="0"
           style="fill:#000000;stroke-width:0" /><path
           id="path7608"
           d="m 531.83,417.46 0.16,0 0.16,0 0.15,0 0.08,0.01 0.08,0 0.07,0.01 0.08,0.01 0.07,0.01 0.07,0.01 0.07,0.01 0.07,0.02 0.06,0.02 0.07,0.02 0.06,0.03 0.05,0.02 0.06,0.04 0.05,0.03 0.05,0.04 0.05,0.04 0.04,0.05 0.04,0.05 0.01,0.02 0.02,0.03 0.02,0.03 0.01,0.03 0.02,0.03 0.01,0.04 0.01,0.03 0.01,0.03 0.01,0.04 0.01,0.04 0,0.04 0.01,0.04 0,0.04 0.01,0.04 0,0.05 0,0.04 c 0,1 -0.9,1 -1.74,1 l -26.95,0 c -0.85,0 -1.75,0 -1.75,-1 0,-0.99 0.9,-0.99 1.75,-0.99 z"
           inkscape:connector-curvature="0"
           style="fill:#000000;stroke-width:0" /><path
           id="path7610"
           d="m 557.47,397.53 -0.01,-0.03 -0.01,-0.03 -0.01,-0.03 -0.01,-0.02 -0.01,-0.06 -0.02,-0.05 -0.01,-0.05 -0.02,-0.04 -0.01,-0.04 -0.01,-0.04 -0.02,-0.04 -0.01,-0.04 -0.01,-0.03 -0.01,-0.03 -0.01,-0.03 -0.01,-0.03 0,-0.03 -0.01,-0.03 -0.01,-0.02 0,-0.03 -0.01,-0.02 0,-0.02 -0.01,-0.02 0,-0.02 -0.01,-0.05 0,-0.04 -0.01,-0.04 0,-0.04 0,-0.02 0,-0.02 c 0,-1.1 0.94,-1.4 1.44,-1.4 0.25,0 1.35,0.15 1.85,1.3 0.15,0.4 0.4,2.04 1.74,9.11 0.45,-0.05 0.8,-0.1 1.65,-0.1 8.26,0 15.94,7.82 15.94,15.69 l -1.4,-1.09 c 0,-5.63 -6.42,-11.71 -14.1,-11.71 l 0,0 c -0.39,0 -0.5,0 -0.89,0.05 -0.6,0 -0.65,0.05 -0.65,0.2 0,0.1 0.85,4.63 0.99,5.38 1.55,6.38 5.43,11.16 9.87,11.16 3.43,0 4.78,-2.69 4.78,-5.08 l 1.4,1.09 c 0,3.89 -1.95,6.88 -5.68,6.88 -7.23,0 -10.21,-9.66 -13.2,-19.38 -5.39,1 -8.18,3.79 -8.18,7.37 0,1.4 1.15,6.88 4.14,10.31 0.4,0.45 0.4,0.55 0.4,0.65 0,0.2 -0.1,0.5 -0.6,0.5 -1.39,0 -5.23,-7.22 -5.23,-12.01 0,-4.68 3.29,-8.32 8.62,-9.56 z"
           inkscape:connector-curvature="0"
           style="fill:#000000;stroke-width:0" /><path
           id="path7612"
           d="m 593.3,420.79 0,0.06 -0.01,0.05 0,0.05 -0.01,0.06 -0.01,0.06 -0.02,0.05 -0.01,0.06 -0.02,0.06 -0.03,0.05 -0.02,0.06 -0.03,0.05 -0.03,0.06 -0.03,0.05 -0.03,0.05 -0.04,0.05 -0.04,0.05 -0.05,0.05 -0.04,0.05 -0.05,0.04 -0.06,0.05 -0.05,0.04 -0.06,0.03 -0.06,0.04 -0.07,0.03 -0.07,0.03 -0.07,0.02 -0.07,0.02 -0.08,0.02 -0.08,0.02 -0.08,0.01 -0.09,0 -0.09,0.01 c -0.94,0 -1.95,-0.91 -1.95,-1.92 0,-0.59 0.45,-1.32 1.39,-1.32 1.01,0 1.96,0.97 1.96,1.91 z"
           inkscape:connector-curvature="0"
           style="fill:#000000;stroke-width:0" /><path
           id="path7614"
           d="m 586.18,403.08 -0.05,-0.17 -0.05,-0.17 -0.03,-0.08 -0.03,-0.09 -0.02,-0.08 -0.03,-0.09 -0.02,-0.09 -0.02,-0.09 -0.01,-0.1 -0.02,-0.09 -0.01,-0.1 -0.01,-0.05 0,-0.05 0,-0.05 -0.01,-0.06 0,-0.05 0,-0.06 c 0,-1.63 1.4,-2.96 3.31,-2.96 3.49,0 5.02,4.81 5.02,5.33 0,0.46 -0.45,0.46 -0.55,0.46 -0.49,0 -0.53,-0.21 -0.67,-0.59 -0.8,-2.79 -2.33,-4.22 -3.69,-4.22 -0.7,0 -0.88,0.45 -0.88,1.22 0,0.8 0.25,1.46 0.56,2.23 0.35,0.94 0.74,1.88 1.12,2.79 0.31,0.84 1.57,4.01 1.71,4.43 0.1,0.34 0.21,0.77 0.21,1.11 0,1.64 -1.4,2.97 -3.31,2.97 -3.46,0 -5.06,-4.74 -5.06,-5.34 0,-0.45 0.49,-0.45 0.59,-0.45 0.49,0 0.52,0.17 0.63,0.56 0.91,2.99 2.44,4.25 3.73,4.25 0.56,0 0.87,-0.28 0.87,-1.22 0,-0.8 -0.21,-1.32 -1.08,-3.48 z"
           inkscape:connector-curvature="0"
           style="fill:#000000;stroke-width:0" /></g>    </g>
  </g>
  <g
     id="g7749"
     transform="matrix(0.49999975,0,0,0.49999978,79.180213,84.388399)">
    <g
       word-spacing="normal"
       letter-spacing="normal"
       font-size-adjust="none"
       font-stretch="normal"
       font-weight="normal"
       font-variant="normal"
       font-style="normal"
       stroke-miterlimit="10.433"
       xml:space="preserve"
       transform="matrix(1.0629921,0,0,-1.0629921,-186.02362,789.27165)"
       id="content-3"
       style="font-style:normal;font-variant:normal;font-weight:normal;font-stretch:normal;letter-spacing:normal;word-spacing:normal;text-anchor:start;fill:none;fill-opacity:1;fill-rule:evenodd;stroke:#000000;stroke-width:2.00000095;stroke-linecap:butt;stroke-linejoin:miter;stroke-miterlimit:10.43299961;stroke-dasharray:none;stroke-dashoffset:0;stroke-opacity:1"><path
         id="path7752"
         d="m 460.38,408.94 -0.01,-0.07 -0.02,-0.08 -0.01,-0.07 -0.02,-0.08 -0.03,-0.16 -0.04,-0.16 -0.04,-0.16 -0.03,-0.16 -0.04,-0.16 -0.04,-0.16 -0.01,-0.08 -0.02,-0.07 -0.02,-0.07 -0.01,-0.07 -0.02,-0.07 -0.01,-0.07 -0.01,-0.06 -0.02,-0.06 -0.01,-0.05 -0.01,-0.06 -0.01,-0.05 0,-0.04 -0.01,-0.04 0,-0.04 -0.01,-0.03 0,-0.02 c 0,-0.9 0.7,-1.35 1.45,-1.35 0.6,0 1.5,0.4 1.84,1.4 0.1,0.2 1.8,6.97 1.99,7.87 0.4,1.64 1.3,5.13 1.6,6.47 0.2,0.65 1.59,2.99 2.79,4.09 0.4,0.34 1.84,1.64 3.99,1.64 1.29,0 2.03,-0.6 2.09,-0.6 -1.5,-0.25 -2.59,-1.44 -2.59,-2.73 0,-0.8 0.54,-1.75 1.89,-1.75 1.34,0 2.74,1.14 2.74,2.94 0,1.74 -1.6,3.24 -4.13,3.24 -3.24,0 -5.43,-2.44 -6.38,-3.84 -0.4,2.24 -2.19,3.84 -4.53,3.84 -2.3,0 -3.24,-1.95 -3.69,-2.84 -0.9,-1.7 -1.54,-4.68 -1.54,-4.83 0,-0.5 0.49,-0.5 0.59,-0.5 0.5,0 0.55,0.05 0.85,1.14 0.84,3.54 1.84,5.93 3.64,5.93 0.84,0 1.54,-0.4 1.54,-2.29 0,-1.04 -0.15,-1.59 -0.8,-4.18 z"
         inkscape:connector-curvature="0"
         style="fill:#000000;stroke-width:0" /></g>  </g>
</svg>
